<svg width="264" height="148" viewBox="0 0 264 148" fill="none" xmlns="http://www.w3.org/2000/svg">
<path d="M5.6064 146.715L9.25347 139.332C9.34012 139.143 9.64436 139.114 9.7599 139.317L13.407 146.713L17.0406 138.404C17.0848 138.288 17.1715 138.244 17.2716 138.244C17.4315 138.244 17.5894 138.404 17.5027 138.591L13.6226 147.392C13.536 147.595 13.2606 147.581 13.1586 147.392L9.49609 139.923L5.83362 147.392C5.74696 147.581 5.45812 147.595 5.36955 147.392L1.50489 138.591C1.41823 138.402 1.57806 138.244 1.73596 138.244C1.82261 138.244 1.90926 138.288 1.95355 138.404L5.60062 146.713L5.6064 146.715ZM27.5504 138.521C27.5504 138.333 27.6814 138.246 27.8104 138.246C27.9394 138.246 28.0704 138.333 28.0704 138.521V147.208C28.0704 147.367 27.9394 147.454 27.8104 147.454C27.6814 147.454 27.5504 147.367 27.5504 147.208V138.521ZM45.7569 138.521C45.7569 138.333 45.8879 138.246 46.0034 138.246C46.1343 138.246 46.2499 138.333 46.2499 138.521V147.163C46.2499 147.352 46.1478 147.439 46.0323 147.439C45.9456 147.439 45.8301 147.381 45.7434 147.279L39.4467 139.13V147.192C39.4467 147.366 39.3312 147.452 39.2157 147.452C39.0847 147.452 38.9692 147.366 38.9692 147.192V138.55C38.9692 138.348 39.0713 138.246 39.2003 138.246C39.2869 138.246 39.389 138.29 39.4756 138.406L45.7588 146.555V138.521H45.7569ZM60.5108 147.452H57.1526C56.935 147.452 56.7617 147.279 56.7617 147.075V138.606C56.7617 138.404 56.935 138.244 57.1526 138.244H60.5108C66.1855 138.244 66.1855 147.45 60.5108 147.45V147.452ZM57.2392 147.004H60.5108C65.5481 147.004 65.5481 138.679 60.5108 138.679H57.2392V147.004ZM79.1448 147.597C76.6396 147.597 74.4694 145.482 74.5407 142.69C74.6427 139.419 77.0593 138.101 79.0562 138.101C81.053 138.101 83.6603 139.492 83.7469 142.69C83.8336 145.484 81.6615 147.597 79.1428 147.597H79.1448ZM75.0336 142.704C74.9604 145.193 76.9014 147.148 79.1448 147.148C81.3881 147.148 83.3425 145.193 83.2713 142.704C83.1846 139.736 80.7815 138.564 79.0581 138.564C77.2346 138.564 75.1203 139.75 75.0336 142.704ZM97.0605 146.713L100.708 139.33C100.794 139.141 101.098 139.112 101.214 139.315L104.861 146.711L108.495 138.402C108.539 138.286 108.626 138.242 108.726 138.242C108.886 138.242 109.043 138.402 108.957 138.589L105.077 147.391C104.99 147.593 104.715 147.579 104.613 147.391L100.95 139.921L97.2877 147.391C97.201 147.579 96.9103 147.593 96.8236 147.391L92.9589 138.589C92.8723 138.4 93.0321 138.242 93.19 138.242C93.2767 138.242 93.3633 138.286 93.4076 138.402L97.0547 146.711L97.0605 146.713ZM118.165 145.511C118.078 145.222 118.512 145.091 118.6 145.396C119.049 146.944 121.494 147.19 122.349 147.19C123.782 147.19 125.996 146.697 125.996 144.903C125.996 141.573 118.354 144.57 118.354 140.661C118.354 138.664 120.945 138.098 122.189 138.098C123.58 138.098 125.577 138.415 126.127 139.921C126.272 140.268 125.823 140.37 125.721 140.081C125.228 138.72 123.433 138.533 122.203 138.533C120.626 138.533 118.829 139.299 118.829 140.676C118.829 143.992 126.472 141.096 126.472 144.889C126.472 147.017 124.098 147.597 122.345 147.597C120.868 147.597 118.625 147.19 118.161 145.511H118.165ZM147.985 145.511C147.898 145.222 148.331 145.091 148.42 145.396C148.868 146.944 151.316 147.19 152.169 147.19C153.602 147.19 155.816 146.697 155.816 144.903C155.816 141.573 148.173 144.57 148.173 140.661C148.173 138.664 150.765 138.098 152.009 138.098C153.399 138.098 155.396 138.415 155.947 139.921C156.091 140.268 155.643 140.37 155.541 140.081C155.048 138.72 153.253 138.533 152.023 138.533C150.446 138.533 148.649 139.299 148.649 140.676C148.649 143.992 156.292 141.096 156.292 144.889C156.292 147.017 153.917 147.597 152.165 147.597C150.688 147.597 148.445 147.19 147.981 145.511H147.985ZM169.314 143.701L165.521 138.648C165.348 138.446 165.463 138.242 165.652 138.242C165.725 138.242 165.812 138.271 165.883 138.358L169.559 143.293L173.221 138.358C173.295 138.271 173.381 138.242 173.453 138.242C173.641 138.242 173.741 138.444 173.583 138.648L169.805 143.701V147.175C169.805 147.364 169.675 147.45 169.559 147.45C169.428 147.45 169.313 147.364 169.313 147.175V143.701H169.314ZM182.78 145.511C182.693 145.222 183.127 145.091 183.213 145.396C183.662 146.944 186.109 147.19 186.962 147.19C188.397 147.19 190.611 146.697 190.611 144.903C190.611 141.573 182.969 144.57 182.969 140.661C182.969 138.664 185.559 138.098 186.805 138.098C188.195 138.098 190.194 138.415 190.742 139.921C190.887 140.268 190.438 140.37 190.338 140.081C189.845 138.72 188.05 138.533 186.82 138.533C185.243 138.533 183.448 139.299 183.448 140.676C183.448 143.992 191.091 141.096 191.091 144.889C191.091 147.017 188.717 147.597 186.964 147.597C185.489 147.597 183.244 147.19 182.782 145.511H182.78ZM199.818 138.244H207.794C208.142 138.244 208.142 138.679 207.794 138.679H204.044L204.058 147.177C204.058 147.366 203.913 147.452 203.798 147.452C203.682 147.452 203.551 147.366 203.551 147.177V138.679H199.818C199.469 138.679 199.469 138.244 199.818 138.244ZM218.172 146.988H224.571C224.875 146.988 224.875 147.452 224.571 147.452H218.086C217.855 147.452 217.695 147.279 217.695 147.061V138.621C217.695 138.419 217.853 138.246 218.086 138.246H224.585C224.874 138.246 224.874 138.681 224.571 138.681H218.172V142.677H224.28C224.585 142.677 224.585 143.112 224.28 143.112H218.172V146.992V146.988ZM243.673 138.39C243.744 138.288 243.831 138.246 243.92 138.246C244.033 138.246 244.151 138.333 244.151 138.506V147.192C244.151 147.366 244.02 147.452 243.904 147.452C243.773 147.452 243.66 147.366 243.66 147.192V139.288L239.924 145.151C239.808 145.369 239.533 145.369 239.418 145.151L235.684 139.317V147.192C235.684 147.366 235.568 147.452 235.437 147.452C235.322 147.452 235.191 147.366 235.191 147.192V138.506C235.191 138.333 235.306 138.246 235.422 138.246C235.509 138.246 235.595 138.29 235.653 138.39L239.676 144.658L243.673 138.39ZM254.206 145.513C254.119 145.224 254.555 145.093 254.641 145.398C255.09 146.946 257.535 147.192 258.39 147.192C259.823 147.192 262.037 146.699 262.037 144.905C262.037 141.575 254.395 144.571 254.395 140.663C254.395 138.666 256.985 138.1 258.231 138.1C259.621 138.1 261.618 138.417 262.168 139.923C262.313 140.27 261.864 140.372 261.762 140.083C261.269 138.722 259.474 138.535 258.246 138.535C256.667 138.535 254.872 139.301 254.872 140.678C254.872 143.994 262.515 141.098 262.515 144.891C262.515 147.019 260.143 147.599 258.39 147.599C256.913 147.599 254.67 147.192 254.206 145.513Z" fill="white"/>
<path d="M0 117.333L4.94107 110.38C11.2224 114.772 16.5909 116.601 21.0429 116.601C26.7157 116.601 30.1297 114.162 30.1297 111.905C30.1297 103.733 0.548794 106.904 0.548794 91.717C0.548794 84.032 7.92959 78.4824 17.6269 78.4824C23.2997 78.4824 29.8255 80.433 36.8385 84.9466L32.2633 91.8999C26.4692 88.2413 21.2239 86.6546 17.0762 86.6546C11.8308 86.6546 8.84232 89.0327 8.84232 91.4128C8.84232 98.0599 38.4233 95.6818 38.4233 111.784C38.4233 118.797 31.47 124.835 20.7367 124.835C14.5767 124.835 7.5618 122.517 0 117.333ZM44.7277 123.372V79.9459H52.8999V106.111L75.3446 79.9459H86.0797L67.5998 101.597L86.0797 123.372H75.2849L62.11 108.063L52.8999 118.675V123.372H44.7277ZM104.596 123.372V112.76L87.7627 79.9478H97.0941L108.682 103.246L120.392 79.9478H129.662L112.767 112.76V123.372H104.594H104.596Z" fill="white"/>
<path d="M224.297 124.093V80.667H233.505L255.828 111.894V80.667L264.001 83.5438V124.091H254.792L232.469 92.9253V124.091H224.297V124.093Z" fill="white"/>
<path d="M183.199 124.093V80.667H217.415V88.8392H191.371V98.2322H210.217V106.283H191.371V115.98H217.415V124.093H183.199Z" fill="white"/>
<path d="M162.076 106.408L155.987 98.2665L176.957 98.2954C177.14 99.5759 177.261 100.98 177.261 102.32C177.261 115.189 166.832 125.558 154.085 125.558C141.337 125.558 130.908 115.189 130.908 102.32C130.908 89.4512 141.278 79.2051 154.085 79.2051C160 79.2051 165.307 81.4003 169.393 84.9992L164.086 91.2208C161.402 88.9024 157.865 87.4389 154.083 87.4389C145.849 87.4389 139.14 94.1477 139.14 102.32C139.14 110.492 145.849 117.384 154.083 117.384C160.974 117.384 166.768 112.749 168.538 106.406H162.074L162.076 106.408Z" fill="white"/>
<path d="M119.008 59.346H147.272V49.8721H128.482L119.008 59.346Z" fill="white"/>
<path d="M144.594 0.706055H116.314V11.6684H133.423L144.594 0.706055Z" fill="white"/>
<path d="M104.287 59.3464L116.307 49.7704V11.6553H104.287V59.3464Z" fill="white"/>
<path d="M147.271 11.6657V49.8713H159.715V0.712891L147.271 11.6657Z" fill="white"/>
<path d="M115.943 1.56175V11.2918L105.279 11.2725L115.943 1.56175ZM116.328 0.689453L115.683 1.27676L105.019 10.9875L104.285 11.6557H105.277L115.941 11.6769H116.326V11.2918V0.689453L116.328 0.689453Z" fill="white"/>
</svg>
