<?xml version="1.0" standalone="no"?>
<!DOCTYPE svg PUBLIC "-//W3C//DTD SVG 20010904//EN"
 "http://www.w3.org/TR/2001/REC-SVG-20010904/DTD/svg10.dtd">
<svg version="1.0" xmlns="http://www.w3.org/2000/svg"
 width="936.000000pt" height="936.000000pt" viewBox="0 0 936.000000 936.000000"
 preserveAspectRatio="xMidYMid meet">
<metadata>
Created by potrace 1.14, written by Peter Selinger 2001-2017
</metadata>
<g transform="translate(0.000000,936.000000) scale(0.100000,-0.100000)"
fill="#000000" stroke="none">
<path d="M3034 7956 c-10 -10 -144 -133 -214 -196 -31 -28 -178 -162 -220
-200 -71 -65 -205 -187 -220 -200 -16 -14 -145 -132 -224 -205 -18 -16 -70
-64 -116 -105 -46 -41 -100 -91 -121 -110 -20 -19 -54 -50 -75 -69 -41 -35
-40 -31 -45 -162 -1 -26 1 -51 5 -57 3 -6 2 -13 -4 -17 -6 -4 -8 -11 -5 -16 4
-5 6 -64 5 -131 0 -68 -1 -132 -1 -143 0 -11 0 -42 0 -70 -1 -27 0 -61 1 -75
5 -87 4 -210 -3 -210 -5 0 -6 -4 -2 -9 3 -6 5 -49 5 -98 0 -92 0 -113 3 -176
1 -20 -2 -37 -6 -37 -5 0 -5 -4 -2 -10 3 -5 5 -38 5 -72 0 -35 -1 -70 -1 -78
0 -22 0 -261 0 -285 1 -92 1 -119 -3 -122 -2 -3 0 -18 4 -34 5 -17 5 -31 -1
-35 -5 -3 -7 -10 -3 -15 3 -6 5 -41 4 -77 -1 -37 -1 -71 -1 -77 0 -5 0 -66 0
-135 0 -69 0 -134 0 -145 1 -92 1 -119 -3 -122 -2 -3 0 -18 4 -34 5 -17 5 -31
-1 -35 -5 -3 -7 -10 -4 -15 4 -5 6 -64 5 -131 0 -68 -1 -132 -1 -143 1 -92 1
-119 -3 -122 -2 -3 0 -18 4 -34 5 -17 5 -31 -1 -35 -5 -3 -7 -10 -4 -15 4 -5
6 -64 5 -131 0 -68 -1 -132 -1 -143 1 -92 1 -119 -3 -122 -2 -3 0 -18 4 -34 5
-17 5 -31 -1 -35 -5 -3 -7 -10 -4 -15 4 -5 6 -64 5 -131 0 -68 -1 -132 -1
-143 0 -11 0 -42 0 -70 0 -27 0 -54 0 -60 0 -5 0 -46 0 -90 0 -93 0 -104 1
-169 0 -27 -2 -51 -4 -53 -2 -3 0 -18 4 -34 5 -17 5 -31 -1 -35 -5 -3 -7 -10
-4 -15 4 -5 6 -64 5 -131 0 -68 -1 -132 -1 -143 1 -92 1 -119 -3 -122 -2 -3 0
-18 4 -34 5 -17 5 -31 -1 -35 -5 -3 -7 -10 -3 -15 3 -6 5 -66 5 -135 -1 -68 1
-124 3 -124 3 0 11 6 18 13 7 7 56 46 108 87 52 41 100 79 107 85 7 5 18 15
25 20 104 81 204 161 208 165 22 23 111 90 119 90 6 0 11 3 11 8 0 4 34 34 76
66 41 33 85 68 97 78 12 10 27 21 32 26 6 4 48 38 95 75 47 37 102 82 123 99
21 18 39 31 41 28 1 -3 13 6 27 20 13 14 54 50 92 79 l67 53 0 1979 0 1979
890 0 889 0 114 113 c62 61 132 129 155 150 23 20 40 37 38 37 -2 0 37 39 86
88 95 92 289 282 582 570 97 95 176 174 176 176 0 1 -660 3 -1468 3 -1063 0
-1470 -3 -1478 -11z m-22 -96 c2 -5 2 -230 0 -499 l-2 -489 -23 -3 c-12 -2
-260 -2 -551 1 l-528 5 92 85 c51 47 109 100 128 118 20 18 61 55 91 82 31 26
77 68 102 92 25 23 73 68 108 98 34 30 83 75 110 100 26 25 83 77 126 115 42
39 92 84 110 100 18 17 69 64 115 105 46 41 88 80 94 87 14 15 23 16 28 3z"/>
<path d="M7534 7946 c-28 -28 -149 -133 -170 -146 -13 -8 -24 -19 -24 -25 0
-5 -15 -20 -33 -32 -17 -12 -54 -43 -82 -69 -27 -25 -72 -64 -99 -87 -26 -23
-61 -53 -76 -67 -15 -14 -46 -41 -67 -60 -22 -19 -65 -57 -97 -85 -32 -27 -68
-59 -80 -70 -12 -11 -51 -45 -86 -75 -34 -30 -75 -66 -89 -79 -14 -13 -52 -46
-85 -75 -32 -28 -64 -56 -70 -61 -6 -6 -45 -39 -86 -75 -41 -36 -86 -77 -100
-91 l-25 -26 0 -1979 0 -1979 92 -1 c51 -1 99 -4 107 -7 9 -4 18 -2 21 3 3 6
15 6 30 0 14 -5 25 -6 25 -2 0 6 65 7 80 2 3 -2 9 -1 15 0 24 5 305 1 314 -4
5 -4 12 -2 16 3 4 7 15 7 30 1 14 -5 25 -6 25 -2 0 6 65 7 80 2 3 -2 9 -1 15
0 24 5 305 1 314 -4 5 -4 12 -2 16 3 4 7 15 7 30 1 14 -5 25 -6 25 -1 0 4 13
6 29 3 l30 -4 -2 62 c-1 34 1 64 5 66 4 3 4 15 0 27 -9 26 -8 284 1 293 3 3 2
16 -2 28 -8 25 -7 283 2 292 3 3 2 16 -2 28 -8 25 -7 283 2 292 3 3 3 16 -1
28 -4 11 -7 911 -6 1999 0 1088 -2 1979 -5 1981 -3 2 -11 -1 -17 -8z"/>
<path d="M4348 2862 c-34 -3 -74 -41 -522 -489 -267 -267 -486 -488 -486 -492
0 -3 658 -6 1462 -6 l1463 0 0 488 c0 285 -3 491 -9 494 -7 5 -382 7 -396 2
-3 -1 -9 0 -15 1 -12 2 -285 2 -300 -1 -5 -1 -14 0 -20 1 -12 2 -285 2 -300
-1 -5 -1 -14 0 -20 1 -12 2 -285 2 -300 -1 -5 -1 -14 0 -20 1 -22 4 -297 2
-302 -3 -3 -3 -11 -3 -19 0 -16 6 -162 9 -216 5z"/>
</g>
</svg>
